<mxfile host="app.diagrams.net" modified="2023-09-09T04:05:57.363Z" agent="Mozilla/5.0 (Windows NT 10.0; Win64; x64; rv:109.0) Gecko/20100101 Firefox/117.0" etag="tjpvUSm09tBNr3KOsb8U" version="21.7.4" type="github">
  <diagram id="C5RBs43oDa-KdzZeNtuy" name="Page-1">
    <mxGraphModel dx="989" dy="514" grid="1" gridSize="10" guides="1" tooltips="1" connect="1" arrows="1" fold="1" page="1" pageScale="1" pageWidth="827" pageHeight="1169" math="0" shadow="0">
      <root>
        <mxCell id="WIyWlLk6GJQsqaUBKTNV-0" />
        <mxCell id="WIyWlLk6GJQsqaUBKTNV-1" parent="WIyWlLk6GJQsqaUBKTNV-0" />
        <mxCell id="0nM1q5WB_NpFbTuT0pPV-1" style="edgeStyle=orthogonalEdgeStyle;rounded=0;orthogonalLoop=1;jettySize=auto;html=1;exitX=0.5;exitY=1;exitDx=0;exitDy=0;entryX=0.5;entryY=0;entryDx=0;entryDy=0;" edge="1" parent="WIyWlLk6GJQsqaUBKTNV-1" source="WIyWlLk6GJQsqaUBKTNV-3" target="0nM1q5WB_NpFbTuT0pPV-0">
          <mxGeometry relative="1" as="geometry" />
        </mxCell>
        <mxCell id="WIyWlLk6GJQsqaUBKTNV-3" value="Clear Screen" style="rounded=1;whiteSpace=wrap;html=1;fontSize=12;glass=0;strokeWidth=1;shadow=0;" parent="WIyWlLk6GJQsqaUBKTNV-1" vertex="1">
          <mxGeometry x="160" y="80" width="120" height="40" as="geometry" />
        </mxCell>
        <mxCell id="0nM1q5WB_NpFbTuT0pPV-3" style="edgeStyle=orthogonalEdgeStyle;rounded=0;orthogonalLoop=1;jettySize=auto;html=1;exitX=0.5;exitY=1;exitDx=0;exitDy=0;entryX=0.5;entryY=0;entryDx=0;entryDy=0;" edge="1" parent="WIyWlLk6GJQsqaUBKTNV-1" source="0nM1q5WB_NpFbTuT0pPV-0" target="0nM1q5WB_NpFbTuT0pPV-2">
          <mxGeometry relative="1" as="geometry" />
        </mxCell>
        <mxCell id="0nM1q5WB_NpFbTuT0pPV-0" value="Get first number" style="rounded=1;whiteSpace=wrap;html=1;" vertex="1" parent="WIyWlLk6GJQsqaUBKTNV-1">
          <mxGeometry x="160" y="160" width="120" height="60" as="geometry" />
        </mxCell>
        <mxCell id="0nM1q5WB_NpFbTuT0pPV-5" style="edgeStyle=orthogonalEdgeStyle;rounded=0;orthogonalLoop=1;jettySize=auto;html=1;exitX=1;exitY=0.5;exitDx=0;exitDy=0;entryX=1;entryY=0.5;entryDx=0;entryDy=0;" edge="1" parent="WIyWlLk6GJQsqaUBKTNV-1" source="0nM1q5WB_NpFbTuT0pPV-2" target="0nM1q5WB_NpFbTuT0pPV-0">
          <mxGeometry relative="1" as="geometry">
            <Array as="points">
              <mxPoint x="340" y="330" />
              <mxPoint x="340" y="190" />
            </Array>
          </mxGeometry>
        </mxCell>
        <mxCell id="0nM1q5WB_NpFbTuT0pPV-9" value="&lt;div&gt;No&lt;/div&gt;" style="edgeLabel;html=1;align=center;verticalAlign=middle;resizable=0;points=[];" vertex="1" connectable="0" parent="0nM1q5WB_NpFbTuT0pPV-5">
          <mxGeometry x="-0.8361" y="-2" relative="1" as="geometry">
            <mxPoint x="-4" y="-2" as="offset" />
          </mxGeometry>
        </mxCell>
        <mxCell id="0nM1q5WB_NpFbTuT0pPV-11" value="" style="edgeStyle=orthogonalEdgeStyle;rounded=0;orthogonalLoop=1;jettySize=auto;html=1;" edge="1" parent="WIyWlLk6GJQsqaUBKTNV-1" source="0nM1q5WB_NpFbTuT0pPV-2" target="0nM1q5WB_NpFbTuT0pPV-10">
          <mxGeometry relative="1" as="geometry" />
        </mxCell>
        <mxCell id="0nM1q5WB_NpFbTuT0pPV-12" value="Yes" style="edgeLabel;html=1;align=center;verticalAlign=middle;resizable=0;points=[];" vertex="1" connectable="0" parent="0nM1q5WB_NpFbTuT0pPV-11">
          <mxGeometry x="-0.0644" y="3" relative="1" as="geometry">
            <mxPoint x="-3" as="offset" />
          </mxGeometry>
        </mxCell>
        <mxCell id="0nM1q5WB_NpFbTuT0pPV-2" value="&lt;div&gt;Number&amp;nbsp;&lt;/div&gt;&lt;div&gt;entered?&lt;/div&gt;" style="rhombus;whiteSpace=wrap;html=1;rounded=1;" vertex="1" parent="WIyWlLk6GJQsqaUBKTNV-1">
          <mxGeometry x="165" y="280" width="110" height="100" as="geometry" />
        </mxCell>
        <mxCell id="0nM1q5WB_NpFbTuT0pPV-14" value="" style="edgeStyle=orthogonalEdgeStyle;rounded=0;orthogonalLoop=1;jettySize=auto;html=1;" edge="1" parent="WIyWlLk6GJQsqaUBKTNV-1" source="0nM1q5WB_NpFbTuT0pPV-10" target="0nM1q5WB_NpFbTuT0pPV-13">
          <mxGeometry relative="1" as="geometry" />
        </mxCell>
        <mxCell id="0nM1q5WB_NpFbTuT0pPV-10" value="Get operator" style="rounded=1;whiteSpace=wrap;html=1;" vertex="1" parent="WIyWlLk6GJQsqaUBKTNV-1">
          <mxGeometry x="160" y="440" width="120" height="60" as="geometry" />
        </mxCell>
        <mxCell id="0nM1q5WB_NpFbTuT0pPV-15" style="edgeStyle=orthogonalEdgeStyle;rounded=0;orthogonalLoop=1;jettySize=auto;html=1;exitX=1;exitY=0.5;exitDx=0;exitDy=0;entryX=1;entryY=0.5;entryDx=0;entryDy=0;" edge="1" parent="WIyWlLk6GJQsqaUBKTNV-1" source="0nM1q5WB_NpFbTuT0pPV-13" target="0nM1q5WB_NpFbTuT0pPV-10">
          <mxGeometry relative="1" as="geometry">
            <Array as="points">
              <mxPoint x="350" y="620" />
              <mxPoint x="350" y="470" />
            </Array>
          </mxGeometry>
        </mxCell>
        <mxCell id="0nM1q5WB_NpFbTuT0pPV-16" value="No" style="edgeLabel;html=1;align=center;verticalAlign=middle;resizable=0;points=[];" vertex="1" connectable="0" parent="0nM1q5WB_NpFbTuT0pPV-15">
          <mxGeometry x="-0.8433" y="1" relative="1" as="geometry">
            <mxPoint as="offset" />
          </mxGeometry>
        </mxCell>
        <mxCell id="0nM1q5WB_NpFbTuT0pPV-18" value="" style="edgeStyle=orthogonalEdgeStyle;rounded=0;orthogonalLoop=1;jettySize=auto;html=1;" edge="1" parent="WIyWlLk6GJQsqaUBKTNV-1" source="0nM1q5WB_NpFbTuT0pPV-13" target="0nM1q5WB_NpFbTuT0pPV-17">
          <mxGeometry relative="1" as="geometry" />
        </mxCell>
        <mxCell id="0nM1q5WB_NpFbTuT0pPV-19" value="&lt;div&gt;Yes&lt;/div&gt;" style="edgeLabel;html=1;align=center;verticalAlign=middle;resizable=0;points=[];" vertex="1" connectable="0" parent="0nM1q5WB_NpFbTuT0pPV-18">
          <mxGeometry x="-0.1145" relative="1" as="geometry">
            <mxPoint y="-15" as="offset" />
          </mxGeometry>
        </mxCell>
        <mxCell id="0nM1q5WB_NpFbTuT0pPV-13" value="&lt;div&gt;Operator&lt;/div&gt;&lt;div&gt;Entered?&lt;br&gt;&lt;/div&gt;" style="rhombus;whiteSpace=wrap;html=1;rounded=1;" vertex="1" parent="WIyWlLk6GJQsqaUBKTNV-1">
          <mxGeometry x="160" y="570" width="120" height="100" as="geometry" />
        </mxCell>
        <mxCell id="0nM1q5WB_NpFbTuT0pPV-21" value="" style="edgeStyle=orthogonalEdgeStyle;rounded=0;orthogonalLoop=1;jettySize=auto;html=1;" edge="1" parent="WIyWlLk6GJQsqaUBKTNV-1" source="0nM1q5WB_NpFbTuT0pPV-17" target="0nM1q5WB_NpFbTuT0pPV-20">
          <mxGeometry relative="1" as="geometry" />
        </mxCell>
        <mxCell id="0nM1q5WB_NpFbTuT0pPV-17" value="&lt;div&gt;Get second&amp;nbsp;&lt;/div&gt;&lt;div&gt;number&lt;/div&gt;" style="whiteSpace=wrap;html=1;rounded=1;" vertex="1" parent="WIyWlLk6GJQsqaUBKTNV-1">
          <mxGeometry x="160" y="750" width="120" height="60" as="geometry" />
        </mxCell>
        <mxCell id="0nM1q5WB_NpFbTuT0pPV-23" value="" style="edgeStyle=orthogonalEdgeStyle;rounded=0;orthogonalLoop=1;jettySize=auto;html=1;" edge="1" parent="WIyWlLk6GJQsqaUBKTNV-1" source="0nM1q5WB_NpFbTuT0pPV-20" target="0nM1q5WB_NpFbTuT0pPV-22">
          <mxGeometry relative="1" as="geometry" />
        </mxCell>
        <mxCell id="0nM1q5WB_NpFbTuT0pPV-20" value="Calculate Result" style="whiteSpace=wrap;html=1;rounded=1;" vertex="1" parent="WIyWlLk6GJQsqaUBKTNV-1">
          <mxGeometry x="160" y="890" width="120" height="60" as="geometry" />
        </mxCell>
        <mxCell id="0nM1q5WB_NpFbTuT0pPV-24" style="edgeStyle=orthogonalEdgeStyle;rounded=0;orthogonalLoop=1;jettySize=auto;html=1;exitX=1;exitY=0.5;exitDx=0;exitDy=0;entryX=1;entryY=0.5;entryDx=0;entryDy=0;" edge="1" parent="WIyWlLk6GJQsqaUBKTNV-1" source="0nM1q5WB_NpFbTuT0pPV-22" target="WIyWlLk6GJQsqaUBKTNV-3">
          <mxGeometry relative="1" as="geometry">
            <Array as="points">
              <mxPoint x="430" y="1060" />
              <mxPoint x="430" y="100" />
            </Array>
          </mxGeometry>
        </mxCell>
        <mxCell id="0nM1q5WB_NpFbTuT0pPV-22" value="Display Result" style="whiteSpace=wrap;html=1;rounded=1;" vertex="1" parent="WIyWlLk6GJQsqaUBKTNV-1">
          <mxGeometry x="160" y="1030" width="120" height="60" as="geometry" />
        </mxCell>
      </root>
    </mxGraphModel>
  </diagram>
</mxfile>
